name Walk2.mot
datacolumns 19
datarows 27
range 1.14200000 1.16800000
endheader

                time	   L_ground_force_vx	   L_ground_force_vy	   L_ground_force_vz	   L_ground_force_px	   L_ground_force_py	   L_ground_force_pz	   R_ground_force_vx	   R_ground_force_vy	   R_ground_force_vz	   R_ground_force_px	   R_ground_force_py	   R_ground_force_pz	   L_ground_torque_x	   L_ground_torque_y	   L_ground_torque_z	   R_ground_torque_x	   R_ground_torque_y	   R_ground_torque_z	
          1.14200000	          0.08752084	          0.21129308	         -0.00534877	         -0.00020586	          0.00000000	         -0.00003298	        -26.03631921	        719.71153442	        -42.15080546	          0.23886638	          0.00000000	          0.08615061	          0.00000000	         -0.00035509	          0.00000000	          0.00000000	          5.31081894	          0.00000000	
          1.14300000	          0.08479940	          0.20556014	         -0.00582788	         -0.00022964	          0.00000000	         -0.00003332	        -25.73587020	        718.45224897	        -41.92728347	          0.23931084	          0.00000000	          0.08618111	          0.00000000	         -0.00037725	          0.00000000	          0.00000000	          5.24337223	          0.00000000	
          1.14400000	          0.08198891	          0.19953788	         -0.00624423	         -0.00025052	          0.00000000	         -0.00003350	        -25.43638712	        717.19763573	        -41.70709147	          0.23975558	          0.00000000	          0.08621202	          0.00000000	         -0.00039610	          0.00000000	          0.00000000	          5.17687427	          0.00000000	
          1.14500000	          0.07910756	          0.19327365	         -0.00660159	         -0.00026869	          0.00000000	         -0.00003354	        -25.13786714	        715.94867542	        -41.49065770	          0.24020061	          0.00000000	          0.08624333	          0.00000000	         -0.00041185	          0.00000000	          0.00000000	          5.11134850	          0.00000000	
          1.14600000	          0.07617227	          0.18681170	         -0.00690362	         -0.00028429	          0.00000000	         -0.00003345	        -24.84030508	        714.70632416	        -41.27840862	          0.24064594	          0.00000000	          0.08627505	          0.00000000	         -0.00042471	          0.00000000	          0.00000000	          5.04681630	          0.00000000	
          1.14700000	          0.07319871	          0.18019325	         -0.00715388	         -0.00029750	          0.00000000	         -0.00003324	        -24.54369392	        713.47151724	        -41.07076501	          0.24109159	          0.00000000	          0.08630717	          0.00000000	         -0.00043487	          0.00000000	          0.00000000	          4.98329695	          0.00000000	
          1.14800000	          0.07020137	          0.17345662	         -0.00735583	         -0.00030846	          0.00000000	         -0.00003292	        -24.24802537	        712.24517310	        -40.86813790	          0.24153758	          0.00000000	          0.08633967	          0.00000000	         -0.00044252	          0.00000000	          0.00000000	          4.92080750	          0.00000000	
          1.14900000	          0.06719361	          0.16663731	         -0.00751281	         -0.00031732	          0.00000000	         -0.00003251	        -23.95329042	        711.02819577	        -40.67092460	          0.24198393	          0.00000000	          0.08637255	          0.00000000	         -0.00044785	          0.00000000	          0.00000000	          4.85936264	          0.00000000	
          1.15000000	          0.06418767	          0.15976813	         -0.00762806	         -0.00032422	          0.00000000	         -0.00003201	        -23.65947969	        709.82147549	        -40.47950501	          0.24243066	          0.00000000	          0.08640579	          0.00000000	         -0.00045103	          0.00000000	          0.00000000	          4.79897439	          0.00000000	
          1.15100000	          0.06119475	          0.15287927	         -0.00770468	         -0.00032932	          0.00000000	         -0.00003143	        -23.36658363	        708.62588759	        -40.29423838	          0.24287779	          0.00000000	          0.08643937	          0.00000000	         -0.00045224	          0.00000000	          0.00000000	          4.73965189	          0.00000000	
          1.15200000	          0.05822507	          0.14599843	         -0.00774567	         -0.00033274	          0.00000000	         -0.00003078	        -23.07459260	        707.44229076	        -40.11546086	          0.24332534	          0.00000000	          0.08647328	          0.00000000	         -0.00045163	          0.00000000	          0.00000000	          4.68140124	          0.00000000	
          1.15300000	          0.05528786	          0.13915093	         -0.00775391	         -0.00033461	          0.00000000	         -0.00003007	        -22.78349675	        706.27152586	        -39.94348372	          0.24377331	          0.00000000	          0.08650750	          0.00000000	         -0.00044938	          0.00000000	          0.00000000	          4.62422547	          0.00000000	
          1.15400000	          0.05239146	          0.13235982	         -0.00773215	         -0.00033505	          0.00000000	         -0.00002930	        -22.49328582	        705.11441580	        -39.77859217	          0.24422170	          0.00000000	          0.08654201	          0.00000000	         -0.00044561	          0.00000000	          0.00000000	          4.56812463	          0.00000000	
          1.15500000	          0.04954336	          0.12564596	         -0.00768302	         -0.00033419	          0.00000000	         -0.00002849	        -22.20394875	        703.97176671	        -39.62104469	          0.24467051	          0.00000000	          0.08657677	          0.00000000	         -0.00044048	          0.00000000	          0.00000000	          4.51309612	          0.00000000	
          1.15600000	          0.04675020	          0.11902815	         -0.00760904	         -0.00033215	          0.00000000	         -0.00002764	        -21.91547336	        702.84437006	        -39.47107251	          0.24511972	          0.00000000	          0.08661177	          0.00000000	         -0.00043413	          0.00000000	          0.00000000	          4.45913493	          0.00000000	
          1.15700000	          0.04401786	          0.11252324	         -0.00751259	         -0.00032902	          0.00000000	         -0.00002676	        -21.62784614	        701.73300546	        -39.32887921	          0.24556932	          0.00000000	          0.08664697	          0.00000000	         -0.00042667	          0.00000000	          0.00000000	          4.40623402	          0.00000000	
          1.15800000	          0.04135151	          0.10614620	         -0.00739595	         -0.00032491	          0.00000000	         -0.00002585	        -21.34105237	        700.63844360	        -39.19464035	          0.24601930	          0.00000000	          0.08668232	          0.00000000	         -0.00041823	          0.00000000	          0.00000000	          4.35438462	          0.00000000	
          1.15900000	          0.03875561	          0.09991026	         -0.00726129	         -0.00031993	          0.00000000	         -0.00002493	        -21.05507673	        699.56144897	        -39.06850301	          0.24646962	          0.00000000	          0.08671779	          0.00000000	         -0.00040893	          0.00000000	          0.00000000	          4.30357645	          0.00000000	
          1.16000000	          0.03623397	          0.09382699	         -0.00711063	         -0.00031416	          0.00000000	         -0.00002398	        -20.76990414	        698.50278151	        -38.95058546	          0.24692026	          0.00000000	          0.08675333	          0.00000000	         -0.00039888	          0.00000000	          0.00000000	          4.25379791	          0.00000000	
          1.16100000	          0.03378981	          0.08790640	         -0.00694592	         -0.00030769	          0.00000000	         -0.00002303	        -20.48552074	        697.46319710	        -38.84097693	          0.24737121	          0.00000000	          0.08678891	          0.00000000	         -0.00038818	          0.00000000	          0.00000000	          4.20503626	          0.00000000	
          1.16200000	          0.03142578	          0.08215702	         -0.00676896	         -0.00030061	          0.00000000	         -0.00002207	        -20.20191482	        696.44344673	        -38.73973760	          0.24782243	          0.00000000	          0.08682449	          0.00000000	         -0.00037691	          0.00000000	          0.00000000	          4.15727770	          0.00000000	
          1.16300000	          0.02914400	          0.07658603	         -0.00658147	         -0.00029300	          0.00000000	         -0.00002111	        -19.91907743	        695.44427502	        -38.64689872	          0.24827390	          0.00000000	          0.08686003	          0.00000000	         -0.00036518	          0.00000000	          0.00000000	          4.11050740	          0.00000000	
          1.16400000	          0.02694609	          0.07119930	         -0.00638506	         -0.00028493	          0.00000000	         -0.00002015	        -19.63700267	        694.46641862	        -38.56246303	          0.24872555	          0.00000000	          0.08689548	          0.00000000	         -0.00035307	          0.00000000	          0.00000000	          4.06470954	          0.00000000	
          1.16500000	          0.02483324	          0.06600153	         -0.00618121	         -0.00027646	          0.00000000	         -0.00001920	        -19.35568759	        693.51060499	        -38.48640537	          0.24917736	          0.00000000	          0.08693080	          0.00000000	         -0.00034066	          0.00000000	          0.00000000	          4.01986725	          0.00000000	
          1.16600000	          0.02280620	          0.06099629	         -0.00597134	         -0.00026768	          0.00000000	         -0.00001825	        -19.07513184	        692.57755207	        -38.41867338	          0.24962927	          0.00000000	          0.08696596	          0.00000000	         -0.00032801	          0.00000000	          0.00000000	          3.97596265	          0.00000000	
          1.16700000	          0.02086532	          0.05618613	         -0.00575675	         -0.00025862	          0.00000000	         -0.00001732	        -18.79533736	        691.66796887	        -38.35918835	          0.25008122	          0.00000000	          0.08700090	          0.00000000	         -0.00031520	          0.00000000	          0.00000000	          3.93297683	          0.00000000	
          1.16800000	          0.01901062	          0.05157263	         -0.00553865	         -0.00024936	          0.00000000	         -0.00001640	        -18.51630815	        690.78255676	        -38.30784595	          0.25053314	          0.00000000	          0.08703560	          0.00000000	         -0.00030228	          0.00000000	          0.00000000	          3.89088991	          0.00000000	
